solid inlet
  facet normal 0.000000 1.000000 0.000000
    outer loop
      vertex 2.000000 0.000000 0.000000
      vertex 0.000000 0.000000 0.000000
      vertex 0.000000 0.000000 0.100000
    endloop
  endfacet
  facet normal 0.000000 1.000000 -0.000000
    outer loop
      vertex 2.000000 0.000000 0.000000
      vertex 0.000000 0.000000 0.100000
      vertex 2.000000 0.000000 0.100000
    endloop
  endfacet
endsolid inlet
solid conversion
  facet normal 0.500000 -0.866025 0.000000
    outer loop
      vertex 0.266700 -1.000721 0.000000
      vertex 2.000000 0.000000 0.000000
      vertex 2.000000 0.000000 0.100000
    endloop
  endfacet
  facet normal 0.500000 -0.866025 0.000000
    outer loop
      vertex 0.266700 -1.000721 0.000000
      vertex 2.000000 0.000000 0.100000
      vertex 0.266700 -1.000721 0.100000
    endloop
  endfacet
endsolid conversion
solid majorOut_in
  facet normal -1.000000 0.000000 0.000000
    outer loop
      vertex 1.211200 -2.543700 0.000000
      vertex 1.211200 -4.043701 0.000000
      vertex 1.211200 -4.043701 0.100000
    endloop
  endfacet
  facet normal -1.000000 0.000000 0.000000
    outer loop
      vertex 1.211200 -2.543700 0.000000
      vertex 1.211200 -4.043701 0.100000
      vertex 1.211200 -2.543700 0.100000
    endloop
  endfacet
endsolid majorOut_in
solid majorOut_curve
  facet normal -0.991445 -0.130526 0.000000
    outer loop
      vertex 1.194163 -2.414291 0.000000
      vertex 1.211200 -2.543700 0.000000
      vertex 1.211200 -2.543700 0.100000
    endloop
  endfacet
  facet normal -0.991445 -0.130526 0.000000
    outer loop
      vertex 1.194163 -2.414291 0.000000
      vertex 1.211200 -2.543700 0.100000
      vertex 1.194163 -2.414291 0.100000
    endloop
  endfacet
  facet normal -0.923879 -0.382684 0.000000
    outer loop
      vertex 1.144213 -2.293700 0.000000
      vertex 1.194163 -2.414291 0.100000
      vertex 1.144213 -2.293700 0.100000
    endloop
  endfacet
  facet normal -0.923879 -0.382684 0.000000
    outer loop
      vertex 1.144213 -2.293700 0.000000
      vertex 1.194163 -2.414291 0.000000
      vertex 1.194163 -2.414291 0.100000
    endloop
  endfacet
  facet normal -0.793353 -0.608762 0.000000
    outer loop
      vertex 1.064753 -2.190147 0.000000
      vertex 1.144213 -2.293700 0.100000
      vertex 1.064753 -2.190147 0.100000
    endloop
  endfacet
  facet normal -0.793353 -0.608762 0.000000
    outer loop
      vertex 1.064753 -2.190147 0.000000
      vertex 1.144213 -2.293700 0.000000
      vertex 1.144213 -2.293700 0.100000
    endloop
  endfacet
  facet normal -0.608762 -0.793353 0.000000
    outer loop
      vertex 0.961200 -2.110688 0.000000
      vertex 1.064753 -2.190147 0.100000
      vertex 0.961200 -2.110688 0.100000
    endloop
  endfacet
  facet normal -0.608762 -0.793353 0.000000
    outer loop
      vertex 0.961200 -2.110688 0.000000
      vertex 1.064753 -2.190147 0.000000
      vertex 1.064753 -2.190147 0.100000
    endloop
  endfacet
  facet normal -0.382683 -0.923880 0.000000
    outer loop
      vertex 0.840610 -2.060738 0.000000
      vertex 0.961200 -2.110688 0.100000
      vertex 0.840610 -2.060738 0.100000
    endloop
  endfacet
  facet normal -0.382683 -0.923880 0.000000
    outer loop
      vertex 0.840610 -2.060738 0.000000
      vertex 0.961200 -2.110688 0.000000
      vertex 0.961200 -2.110688 0.100000
    endloop
  endfacet
  facet normal -0.130527 -0.991445 0.000000
    outer loop
      vertex 0.711200 -2.043700 0.000000
      vertex 0.840610 -2.060738 0.100000
      vertex 0.711200 -2.043700 0.100000
    endloop
  endfacet
  facet normal -0.130527 -0.991445 0.000000
    outer loop
      vertex 0.711200 -2.043700 0.000000
      vertex 0.840610 -2.060738 0.000000
      vertex 0.840610 -2.060738 0.100000
    endloop
  endfacet
endsolid majorOut_curve
solid major_bottom
  facet normal 0.000000 -1.000000 0.000000
    outer loop
      vertex 0.657860 -2.043700 0.000000
      vertex 0.711200 -2.043700 0.000000
      vertex 0.711200 -2.043700 0.100000
    endloop
  endfacet
  facet normal 0.000000 -1.000000 0.000000
    outer loop
      vertex 0.657860 -2.043700 0.000000
      vertex 0.711200 -2.043700 0.100000
      vertex 0.657860 -2.043700 0.100000
    endloop
  endfacet
endsolid major_bottom
solid recieving_out
  facet normal -0.707107 -0.707107 0.000000
    outer loop
      vertex 0.302260 -1.688101 0.000000
      vertex 0.657860 -2.043700 0.000000
      vertex 0.657860 -2.043700 0.100000
    endloop
  endfacet
  facet normal -0.707107 -0.707107 0.000000
    outer loop
      vertex 0.302260 -1.688101 0.000000
      vertex 0.657860 -2.043700 0.100000
      vertex 0.302260 -1.688101 0.100000
    endloop
  endfacet
endsolid recieving_out
solid recieving_top
  facet normal 0.130525 -0.991445 0.000000
    outer loop
      vertex 0.256242 -1.694159 0.000000
      vertex 0.302260 -1.688101 0.000000
      vertex 0.302260 -1.688101 0.100000
    endloop
  endfacet
  facet normal 0.130525 -0.991445 0.000000
    outer loop
      vertex 0.256242 -1.694159 0.000000
      vertex 0.302260 -1.688101 0.100000
      vertex 0.256242 -1.694159 0.100000
    endloop
  endfacet
  facet normal 0.382684 -0.923879 0.000000
    outer loop
      vertex 0.213360 -1.711921 0.000000
      vertex 0.256242 -1.694159 0.100000
      vertex 0.213360 -1.711921 0.100000
    endloop
  endfacet
  facet normal 0.382684 -0.923879 0.000000
    outer loop
      vertex 0.213360 -1.711921 0.000000
      vertex 0.256242 -1.694159 0.000000
      vertex 0.256242 -1.694159 0.100000
    endloop
  endfacet
  facet normal 0.608761 -0.793354 0.000000
    outer loop
      vertex 0.176536 -1.740177 0.000000
      vertex 0.213360 -1.711921 0.100000
      vertex 0.176536 -1.740177 0.100000
    endloop
  endfacet
  facet normal 0.608761 -0.793354 0.000000
    outer loop
      vertex 0.176536 -1.740177 0.000000
      vertex 0.213360 -1.711921 0.000000
      vertex 0.213360 -1.711921 0.100000
    endloop
  endfacet
  facet normal 0.793354 -0.608761 0.000000
    outer loop
      vertex 0.148281 -1.777001 0.000000
      vertex 0.176536 -1.740177 0.100000
      vertex 0.148281 -1.777001 0.100000
    endloop
  endfacet
  facet normal 0.793354 -0.608761 0.000000
    outer loop
      vertex 0.148281 -1.777001 0.000000
      vertex 0.176536 -1.740177 0.000000
      vertex 0.176536 -1.740177 0.100000
    endloop
  endfacet
  facet normal 0.923880 -0.382683 0.000000
    outer loop
      vertex 0.130518 -1.819883 0.000000
      vertex 0.148281 -1.777001 0.100000
      vertex 0.130518 -1.819883 0.100000
    endloop
  endfacet
  facet normal 0.923880 -0.382683 0.000000
    outer loop
      vertex 0.130518 -1.819883 0.000000
      vertex 0.148281 -1.777001 0.000000
      vertex 0.148281 -1.777001 0.100000
    endloop
  endfacet
  facet normal 0.991445 -0.130526 0.000000
    outer loop
      vertex 0.124460 -1.865901 0.000000
      vertex 0.130518 -1.819883 0.100000
      vertex 0.124460 -1.865901 0.100000
    endloop
  endfacet
  facet normal 0.991445 -0.130526 0.000000
    outer loop
      vertex 0.124460 -1.865901 0.000000
      vertex 0.130518 -1.819883 0.000000
      vertex 0.130518 -1.819883 0.100000
    endloop
  endfacet
endsolid recieving_top
solid recieving
  facet normal 1.000000 0.000000 0.000000
    outer loop
      vertex 0.124460 -2.221501 0.000000
      vertex 0.124460 -1.865901 0.000000
      vertex 0.124460 -1.865901 0.100000
    endloop
  endfacet
  facet normal 1.000000 0.000000 0.000000
    outer loop
      vertex 0.124460 -2.221501 0.000000
      vertex 0.124460 -1.865901 0.100000
      vertex 0.124460 -2.221501 0.100000
    endloop
  endfacet
endsolid recieving
solid recieving_expand
  facet normal 1.000000 0.000000 0.000000
    outer loop
      vertex 0.124460 -2.652643 0.000000
      vertex 0.124460 -2.221501 0.000000
      vertex 0.124460 -2.221501 0.100000
    endloop
  endfacet
  facet normal 1.000000 0.000000 0.000000
    outer loop
      vertex 0.124460 -2.652643 0.000000
      vertex 0.124460 -2.221501 0.100000
      vertex 0.124460 -2.652643 0.100000
    endloop
  endfacet
endsolid recieving_expand
solid minor_wall
  facet normal 1.000000 0.000000 0.000000
    outer loop
      vertex 0.124460 -3.026023 0.000000
      vertex 0.124460 -2.652643 0.000000
      vertex 0.124460 -2.652643 0.100000
    endloop
  endfacet
  facet normal 1.000000 0.000000 0.000000
    outer loop
      vertex 0.124460 -3.026023 0.000000
      vertex 0.124460 -2.652643 0.100000
      vertex 0.124460 -3.026023 0.100000
    endloop
  endfacet
endsolid minor_wall
solid minorOutlet
  facet normal 0.000000 -1.000000 0.000000
    outer loop
      vertex 0.000000 -3.026023 0.000000
      vertex 0.124460 -3.026023 0.000000
      vertex 0.124460 -3.026023 0.100000
    endloop
  endfacet
  facet normal 0.000000 -1.000000 0.000000
    outer loop
      vertex 0.000000 -3.026023 0.000000
      vertex 0.124460 -3.026023 0.100000
      vertex 0.000000 -3.026023 0.100000
    endloop
  endfacet
endsolid minorOutlet
solid axis
  facet normal -1.000000 0.000000 0.000000
    outer loop
      vertex 0.000000 0.000000 0.000000
      vertex 0.000000 -3.026023 0.000000
      vertex 0.000000 -3.026023 0.100000
    endloop
  endfacet
  facet normal -1.000000 0.000000 0.000000
    outer loop
      vertex 0.000000 0.000000 0.000000
      vertex 0.000000 -3.026023 0.100000
      vertex 0.000000 0.000000 0.100000
    endloop
  endfacet
endsolid axis
solid conv_to_nozzle
  facet normal 0.608761 -0.793354 0.000000
    outer loop
      vertex 0.229876 -1.028977 0.000000
      vertex 0.266700 -1.000721 0.000000
      vertex 0.266700 -1.000721 0.100000
    endloop
  endfacet
  facet normal 0.608761 -0.793354 0.000000
    outer loop
      vertex 0.229876 -1.028977 0.000000
      vertex 0.266700 -1.000721 0.100000
      vertex 0.229876 -1.028977 0.100000
    endloop
  endfacet
  facet normal 0.793354 -0.608761 0.000000
    outer loop
      vertex 0.201621 -1.065801 0.000000
      vertex 0.229876 -1.028977 0.100000
      vertex 0.201621 -1.065801 0.100000
    endloop
  endfacet
  facet normal 0.793354 -0.608761 0.000000
    outer loop
      vertex 0.201621 -1.065801 0.000000
      vertex 0.229876 -1.028977 0.000000
      vertex 0.229876 -1.028977 0.100000
    endloop
  endfacet
  facet normal 0.923880 -0.382683 0.000000
    outer loop
      vertex 0.183858 -1.108683 0.000000
      vertex 0.201621 -1.065801 0.100000
      vertex 0.183858 -1.108683 0.100000
    endloop
  endfacet
  facet normal 0.923880 -0.382683 0.000000
    outer loop
      vertex 0.183858 -1.108683 0.000000
      vertex 0.201621 -1.065801 0.000000
      vertex 0.201621 -1.065801 0.100000
    endloop
  endfacet
  facet normal 0.991445 -0.130526 0.000000
    outer loop
      vertex 0.177800 -1.154701 0.000000
      vertex 0.183858 -1.108683 0.100000
      vertex 0.177800 -1.154701 0.100000
    endloop
  endfacet
  facet normal 0.991445 -0.130526 0.000000
    outer loop
      vertex 0.177800 -1.154701 0.000000
      vertex 0.183858 -1.108683 0.000000
      vertex 0.183858 -1.108683 0.100000
    endloop
  endfacet
endsolid conv_to_nozzle
solid nozzle
  facet normal 1.000000 0.000000 0.000000
    outer loop
      vertex 0.177800 -1.332501 0.000000
      vertex 0.177800 -1.154701 0.000000
      vertex 0.177800 -1.154701 0.100000
    endloop
  endfacet
  facet normal 1.000000 0.000000 0.000000
    outer loop
      vertex 0.177800 -1.332501 0.000000
      vertex 0.177800 -1.154701 0.100000
      vertex 0.177800 -1.332501 0.100000
    endloop
  endfacet
endsolid nozzle
solid nozzle_bottom
  facet normal 0.000000 1.000000 0.000000
    outer loop
      vertex 0.355600 -1.332501 0.000000
      vertex 0.177800 -1.332501 0.000000
      vertex 0.177800 -1.332501 0.100000
    endloop
  endfacet
  facet normal 0.000000 1.000000 -0.000000
    outer loop
      vertex 0.355600 -1.332501 0.000000
      vertex 0.177800 -1.332501 0.100000
      vertex 0.355600 -1.332501 0.100000
    endloop
  endfacet
endsolid nozzle_bottom
solid nozzle_out
  facet normal -0.707107 0.707107 0.000000
    outer loop
      vertex 0.711200 -0.976901 0.000000
      vertex 0.355600 -1.332501 0.000000
      vertex 0.355600 -1.332501 0.100000
    endloop
  endfacet
  facet normal -0.707107 0.707107 0.000000
    outer loop
      vertex 0.711200 -0.976901 0.000000
      vertex 0.355600 -1.332501 0.100000
      vertex 0.711200 -0.976901 0.100000
    endloop
  endfacet
endsolid nozzle_out
solid major_top
  facet normal 0.000000 1.000000 0.000000
    outer loop
      vertex 1.711200 -0.976901 0.000000
      vertex 0.711200 -0.976901 0.000000
      vertex 0.711200 -0.976901 0.100000
    endloop
  endfacet
  facet normal 0.000000 1.000000 -0.000000
    outer loop
      vertex 1.711200 -0.976901 0.000000
      vertex 0.711200 -0.976901 0.100000
      vertex 1.711200 -0.976901 0.100000
    endloop
  endfacet
endsolid major_top
solid major_side
  facet normal 1.000000 0.000000 0.000000
    outer loop
      vertex 1.711200 -2.043700 0.000000
      vertex 1.711200 -0.976901 0.000000
      vertex 1.711200 -0.976901 0.100000
    endloop
  endfacet
  facet normal 1.000000 0.000000 0.000000
    outer loop
      vertex 1.711200 -2.043700 0.000000
      vertex 1.711200 -0.976901 0.100000
      vertex 1.711200 -2.043700 0.100000
    endloop
  endfacet
endsolid major_side
solid majorOut_out
  facet normal 1.000000 0.000000 0.000000
    outer loop
      vertex 1.711200 -4.043701 0.000000
      vertex 1.711200 -2.043700 0.000000
      vertex 1.711200 -2.043700 0.100000
    endloop
  endfacet
  facet normal 1.000000 0.000000 0.000000
    outer loop
      vertex 1.711200 -4.043701 0.000000
      vertex 1.711200 -2.043700 0.100000
      vertex 1.711200 -4.043701 0.100000
    endloop
  endfacet
endsolid majorOut_out
solid majorOutlet
  facet normal 0.000000 -1.000000 0.000000
    outer loop
      vertex 1.211200 -4.043701 0.000000
      vertex 1.711200 -4.043701 0.000000
      vertex 1.711200 -4.043701 0.100000
    endloop
  endfacet
  facet normal 0.000000 -1.000000 0.000000
    outer loop
      vertex 1.211200 -4.043701 0.000000
      vertex 1.711200 -4.043701 0.100000
      vertex 1.211200 -4.043701 0.100000
    endloop
  endfacet
endsolid majorOutlet
