solid inletRound
  facet normal 0.121869 -0.992546 0.000000
    outer loop
      vertex 2.348885 0.314138 0.000000
      vertex 2.469846 0.328990 0.000000
      vertex 2.469846 0.328990 0.100000
    endloop
  endfacet
  facet normal 0.121869 -0.992546 0.000000
    outer loop
      vertex 2.348885 0.314138 0.000000
      vertex 2.469846 0.328990 0.100000
      vertex 2.348885 0.314138 0.100000
    endloop
  endfacet
  facet normal 0.358368 -0.933580 0.000000
    outer loop
      vertex 2.235111 0.270464 0.000000
      vertex 2.348885 0.314138 0.100000
      vertex 2.235111 0.270464 0.100000
    endloop
  endfacet
  facet normal 0.358368 -0.933580 0.000000
    outer loop
      vertex 2.235111 0.270464 0.000000
      vertex 2.348885 0.314138 0.000000
      vertex 2.348885 0.314138 0.100000
    endloop
  endfacet
  facet normal 0.573577 -0.819152 0.000000
    outer loop
      vertex 2.135281 0.200562 0.000000
      vertex 2.235111 0.270464 0.100000
      vertex 2.135281 0.200562 0.100000
    endloop
  endfacet
  facet normal 0.573577 -0.819152 0.000000
    outer loop
      vertex 2.135281 0.200562 0.000000
      vertex 2.235111 0.270464 0.000000
      vertex 2.235111 0.270464 0.100000
    endloop
  endfacet
  facet normal 0.754709 -0.656060 0.000000
    outer loop
      vertex 2.055327 0.108586 0.000000
      vertex 2.135281 0.200562 0.100000
      vertex 2.055327 0.108586 0.100000
    endloop
  endfacet
  facet normal 0.754709 -0.656060 0.000000
    outer loop
      vertex 2.055327 0.108586 0.000000
      vertex 2.135281 0.200562 0.000000
      vertex 2.135281 0.200562 0.100000
    endloop
  endfacet
  facet normal 0.891007 -0.453990 0.000000
    outer loop
      vertex 2.000000 0.000000 0.000000
      vertex 2.055327 0.108586 0.100000
      vertex 2.000000 0.000000 0.100000
    endloop
  endfacet
  facet normal 0.891007 -0.453990 0.000000
    outer loop
      vertex 2.000000 0.000000 0.000000
      vertex 2.055327 0.108586 0.000000
      vertex 2.055327 0.108586 0.100000
    endloop
  endfacet
endsolid inletRound
solid conversion
  facet normal 0.939693 -0.342020 0.000000
    outer loop
      vertex 0.185554 -4.985150 0.100000
      vertex 2.000000 0.000000 0.000000
      vertex 2.000000 0.000000 0.100000
    endloop
  endfacet
  facet normal 0.939693 -0.342020 0.000000
    outer loop
      vertex 0.185554 -4.985150 0.000000
      vertex 2.000000 0.000000 0.000000
      vertex 0.185554 -4.985150 0.100000
    endloop
  endfacet
endsolid conversion
solid conv_to_nozzle
  facet normal 0.957991 -0.286800 0.000000
    outer loop
      vertex 0.179717 -5.004646 0.000000
      vertex 0.185554 -4.985150 0.000000
      vertex 0.185554 -4.985150 0.100000
    endloop
  endfacet
  facet normal 0.957991 -0.286800 0.000000
    outer loop
      vertex 0.179717 -5.004646 0.000000
      vertex 0.185554 -4.985150 0.100000
      vertex 0.179717 -5.004646 0.100000
    endloop
  endfacet
  facet normal 0.984808 -0.173649 0.000000
    outer loop
      vertex 0.176183 -5.024687 0.000000
      vertex 0.179717 -5.004646 0.100000
      vertex 0.176183 -5.024687 0.100000
    endloop
  endfacet
  facet normal 0.984808 -0.173649 0.000000
    outer loop
      vertex 0.176183 -5.024687 0.000000
      vertex 0.179717 -5.004646 0.000000
      vertex 0.179717 -5.004646 0.100000
    endloop
  endfacet
  facet normal 0.998308 -0.058145 0.000000
    outer loop
      vertex 0.175000 -5.045003 0.000000
      vertex 0.176183 -5.024687 0.100000
      vertex 0.175000 -5.045003 0.100000
    endloop
  endfacet
  facet normal 0.998308 -0.058145 0.000000
    outer loop
      vertex 0.175000 -5.045003 0.000000
      vertex 0.176183 -5.024687 0.000000
      vertex 0.176183 -5.024687 0.100000
    endloop
  endfacet
endsolid conv_to_nozzle
solid nozzle
  facet normal 1.000000 0.000000 0.000000
    outer loop
      vertex 0.175000 -5.920003 0.000000
      vertex 0.175000 -5.045003 0.000000
      vertex 0.175000 -5.045003 0.100000
    endloop
  endfacet
  facet normal 1.000000 0.000000 0.000000
    outer loop
      vertex 0.175000 -5.920003 0.000000
      vertex 0.175000 -5.045003 0.100000
      vertex 0.175000 -5.920003 0.100000
    endloop
  endfacet
endsolid nozzle
solid nozzleOutlet
  facet normal 0.000000 -1.000000 0.000000
    outer loop
      vertex 0.000000 -5.920003 0.000000
      vertex 0.175000 -5.920003 0.000000
      vertex 0.175000 -5.920003 0.100000
    endloop
  endfacet
  facet normal 0.000000 -1.000000 0.000000
    outer loop
      vertex 0.000000 -5.920003 0.000000
      vertex 0.175000 -5.920003 0.100000
      vertex 0.000000 -5.920003 0.100000
    endloop
  endfacet
endsolid nozzleOutlet
solid axis
  facet normal -1.000000 0.000000 0.000000
    outer loop
      vertex 0.000000 50.328991 0.000000
      vertex 0.000000 -5.920003 0.000000
      vertex 0.000000 -5.920003 0.100000
    endloop
  endfacet
  facet normal -1.000000 0.000000 0.000000
    outer loop
      vertex 0.000000 50.328991 0.000000
      vertex 0.000000 -5.920003 0.100000
      vertex 0.000000 50.328991 0.100000
    endloop
  endfacet
endsolid axis
solid inlet
  facet normal 0.999048 0.043620 -0.000000
    outer loop
      vertex 50.000000 0.328990 0.000000
      vertex 49.809734 4.686777 0.000000
      vertex 50.000000 0.328990 0.100000
    endloop
  endfacet
  facet normal 0.999048 0.043620 0.000000
    outer loop
      vertex 50.000000 0.328990 0.100000
      vertex 49.809734 4.686777 0.000000
      vertex 49.809734 4.686777 0.100000
    endloop
  endfacet
  facet normal 0.991445 0.130526 0.000000
    outer loop
      vertex 49.809734 4.686777 0.100000
      vertex 49.240387 9.011399 0.000000
      vertex 49.240387 9.011399 0.100000
    endloop
  endfacet
  facet normal 0.991445 0.130526 -0.000000
    outer loop
      vertex 49.809734 4.686777 0.000000
      vertex 49.240387 9.011399 0.000000
      vertex 49.809734 4.686777 0.100000
    endloop
  endfacet
  facet normal 0.976296 0.216439 0.000000
    outer loop
      vertex 49.240387 9.011399 0.100000
      vertex 48.296291 13.269942 0.000000
      vertex 48.296291 13.269942 0.100000
    endloop
  endfacet
  facet normal 0.976296 0.216439 -0.000000
    outer loop
      vertex 49.240387 9.011399 0.000000
      vertex 48.296291 13.269942 0.000000
      vertex 49.240387 9.011399 0.100000
    endloop
  endfacet
  facet normal 0.953717 0.300706 0.000000
    outer loop
      vertex 48.296291 13.269942 0.100000
      vertex 46.984631 17.429996 0.000000
      vertex 46.984631 17.429996 0.100000
    endloop
  endfacet
  facet normal 0.953717 0.300706 -0.000000
    outer loop
      vertex 48.296291 13.269942 0.000000
      vertex 46.984631 17.429996 0.000000
      vertex 48.296291 13.269942 0.100000
    endloop
  endfacet
  facet normal 0.923880 0.382684 0.000000
    outer loop
      vertex 46.984631 17.429996 0.100000
      vertex 45.315388 21.459904 0.000000
      vertex 45.315388 21.459904 0.100000
    endloop
  endfacet
  facet normal 0.923880 0.382684 -0.000000
    outer loop
      vertex 46.984631 17.429996 0.000000
      vertex 45.315388 21.459904 0.000000
      vertex 46.984631 17.429996 0.100000
    endloop
  endfacet
  facet normal 0.887011 0.461749 0.000000
    outer loop
      vertex 45.315388 21.459904 0.100000
      vertex 43.301270 25.328989 0.000000
      vertex 43.301270 25.328989 0.100000
    endloop
  endfacet
  facet normal 0.887011 0.461749 -0.000000
    outer loop
      vertex 45.315388 21.459904 0.000000
      vertex 43.301270 25.328989 0.000000
      vertex 45.315388 21.459904 0.100000
    endloop
  endfacet
  facet normal 0.843392 0.537299 0.000000
    outer loop
      vertex 43.301270 25.328989 0.100000
      vertex 40.957603 29.007812 0.000000
      vertex 40.957603 29.007812 0.100000
    endloop
  endfacet
  facet normal 0.843392 0.537299 -0.000000
    outer loop
      vertex 43.301270 25.328989 0.000000
      vertex 40.957603 29.007812 0.000000
      vertex 43.301270 25.328989 0.100000
    endloop
  endfacet
  facet normal 0.793353 0.608762 0.000000
    outer loop
      vertex 40.957603 29.007812 0.100000
      vertex 38.302223 32.468369 0.000000
      vertex 38.302223 32.468369 0.100000
    endloop
  endfacet
  facet normal 0.793353 0.608762 -0.000000
    outer loop
      vertex 40.957603 29.007812 0.000000
      vertex 38.302223 32.468369 0.000000
      vertex 40.957603 29.007812 0.100000
    endloop
  endfacet
  facet normal 0.737277 0.675590 0.000000
    outer loop
      vertex 38.302223 32.468369 0.100000
      vertex 35.355339 35.684330 0.000000
      vertex 35.355339 35.684330 0.100000
    endloop
  endfacet
  facet normal 0.737277 0.675590 -0.000000
    outer loop
      vertex 38.302223 32.468369 0.000000
      vertex 35.355339 35.684330 0.000000
      vertex 38.302223 32.468369 0.100000
    endloop
  endfacet
  facet normal 0.675590 0.737278 0.000000
    outer loop
      vertex 35.355339 35.684330 0.100000
      vertex 32.139381 38.631210 0.000000
      vertex 32.139381 38.631210 0.100000
    endloop
  endfacet
  facet normal 0.675590 0.737278 -0.000000
    outer loop
      vertex 35.355339 35.684330 0.000000
      vertex 32.139381 38.631210 0.000000
      vertex 35.355339 35.684330 0.100000
    endloop
  endfacet
  facet normal 0.608761 0.793353 0.000000
    outer loop
      vertex 32.139381 38.631210 0.100000
      vertex 28.678822 41.286591 0.000000
      vertex 28.678822 41.286591 0.100000
    endloop
  endfacet
  facet normal 0.608761 0.793353 -0.000000
    outer loop
      vertex 32.139381 38.631210 0.000000
      vertex 28.678822 41.286591 0.000000
      vertex 32.139381 38.631210 0.100000
    endloop
  endfacet
  facet normal 0.537300 0.843391 0.000000
    outer loop
      vertex 28.678822 41.286591 0.100000
      vertex 25.000000 43.630260 0.000000
      vertex 25.000000 43.630260 0.100000
    endloop
  endfacet
  facet normal 0.537300 0.843391 -0.000000
    outer loop
      vertex 28.678822 41.286591 0.000000
      vertex 25.000000 43.630260 0.000000
      vertex 28.678822 41.286591 0.100000
    endloop
  endfacet
  facet normal 0.461748 0.887011 0.000000
    outer loop
      vertex 25.000000 43.630260 0.100000
      vertex 21.130913 45.644379 0.000000
      vertex 21.130913 45.644379 0.100000
    endloop
  endfacet
  facet normal 0.461748 0.887011 -0.000000
    outer loop
      vertex 25.000000 43.630260 0.000000
      vertex 21.130913 45.644379 0.000000
      vertex 25.000000 43.630260 0.100000
    endloop
  endfacet
  facet normal 0.382684 0.923880 0.000000
    outer loop
      vertex 21.130913 45.644379 0.100000
      vertex 17.101007 47.313622 0.000000
      vertex 17.101007 47.313622 0.100000
    endloop
  endfacet
  facet normal 0.382684 0.923880 -0.000000
    outer loop
      vertex 21.130913 45.644379 0.000000
      vertex 17.101007 47.313622 0.000000
      vertex 21.130913 45.644379 0.100000
    endloop
  endfacet
  facet normal 0.300706 0.953717 -0.000000
    outer loop
      vertex 17.101007 47.313622 0.000000
      vertex 12.940952 48.625282 0.000000
      vertex 17.101007 47.313622 0.100000
    endloop
  endfacet
  facet normal 0.300706 0.953717 0.000000
    outer loop
      vertex 17.101007 47.313622 0.100000
      vertex 12.940952 48.625282 0.000000
      vertex 12.940952 48.625282 0.100000
    endloop
  endfacet
  facet normal 0.216439 0.976296 -0.000000
    outer loop
      vertex 12.940952 48.625282 0.000000
      vertex 8.682409 49.569378 0.000000
      vertex 12.940952 48.625282 0.100000
    endloop
  endfacet
  facet normal 0.216439 0.976296 0.000000
    outer loop
      vertex 12.940952 48.625282 0.100000
      vertex 8.682409 49.569378 0.000000
      vertex 8.682409 49.569378 0.100000
    endloop
  endfacet
  facet normal 0.130526 0.991445 -0.000000
    outer loop
      vertex 8.682409 49.569378 0.000000
      vertex 4.357787 50.138725 0.000000
      vertex 8.682409 49.569378 0.100000
    endloop
  endfacet
  facet normal 0.130526 0.991445 0.000000
    outer loop
      vertex 8.682409 49.569378 0.100000
      vertex 4.357787 50.138725 0.000000
      vertex 4.357787 50.138725 0.100000
    endloop
  endfacet
  facet normal 0.043620 0.999048 -0.000000
    outer loop
      vertex 4.357787 50.138725 0.000000
      vertex 0.000000 50.328991 0.000000
      vertex 4.357787 50.138725 0.100000
    endloop
  endfacet
  facet normal 0.043620 0.999048 0.000000
    outer loop
      vertex 4.357787 50.138725 0.100000
      vertex 0.000000 50.328991 0.000000
      vertex 0.000000 50.328991 0.100000
    endloop
  endfacet
endsolid inlet
solid inletWall
  facet normal 0.000000 -1.000000 0.000000
    outer loop
      vertex 2.469846 0.328990 0.000000
      vertex 50.000000 0.328990 0.000000
      vertex 50.000000 0.328990 0.100000
    endloop
  endfacet
  facet normal 0.000000 -1.000000 0.000000
    outer loop
      vertex 2.469846 0.328990 0.000000
      vertex 50.000000 0.328990 0.100000
      vertex 2.469846 0.328990 0.100000
    endloop
  endfacet
endsolid inletWall
