solid inlet
  facet normal 0.000000 1.000000 0.000000
    outer loop
      vertex 2.000000 0.000000 0.000000
      vertex 0.000000 0.000000 0.000000
      vertex 0.000000 0.000000 0.100000
    endloop
  endfacet
  facet normal 0.000000 1.000000 -0.000000
    outer loop
      vertex 2.000000 0.000000 0.000000
      vertex 0.000000 0.000000 0.100000
      vertex 2.000000 0.000000 0.100000
    endloop
  endfacet
endsolid inlet
solid conversion
  facet normal 0.608761 -0.793353 0.000000
    outer loop
      vertex 0.247362 -1.344846 0.000000
      vertex 2.000000 0.000000 0.000000
      vertex 2.000000 0.000000 0.100000
    endloop
  endfacet
  facet normal 0.608761 -0.793353 0.000000
    outer loop
      vertex 0.247362 -1.344846 0.000000
      vertex 2.000000 0.000000 0.100000
      vertex 0.247362 -1.344846 0.100000
    endloop
  endfacet
endsolid conversion
solid majorOut_in
  facet normal -1.000000 0.000000 0.000000
    outer loop
      vertex 4.819269 -4.975104 0.000000
      vertex 4.819269 -7.975104 0.000000
      vertex 4.819269 -7.975104 0.100000
    endloop
  endfacet
  facet normal -1.000000 0.000000 0.000000
    outer loop
      vertex 4.819269 -4.975104 0.000000
      vertex 4.819269 -7.975104 0.100000
      vertex 4.819269 -4.975104 0.100000
    endloop
  endfacet
endsolid majorOut_in
solid majorOut_curve
  facet normal -0.991445 -0.130527 0.000000
    outer loop
      vertex 4.785195 -4.716285 0.000000
      vertex 4.819269 -4.975104 0.000000
      vertex 4.819269 -4.975104 0.100000
    endloop
  endfacet
  facet normal -0.991445 -0.130527 0.000000
    outer loop
      vertex 4.785195 -4.716285 0.000000
      vertex 4.819269 -4.975104 0.100000
      vertex 4.785195 -4.716285 0.100000
    endloop
  endfacet
  facet normal -0.923880 -0.382683 0.000000
    outer loop
      vertex 4.685295 -4.475104 0.000000
      vertex 4.785195 -4.716285 0.100000
      vertex 4.685295 -4.475104 0.100000
    endloop
  endfacet
  facet normal -0.923880 -0.382683 0.000000
    outer loop
      vertex 4.685295 -4.475104 0.000000
      vertex 4.785195 -4.716285 0.000000
      vertex 4.785195 -4.716285 0.100000
    endloop
  endfacet
  facet normal -0.793353 -0.608762 0.000000
    outer loop
      vertex 4.526376 -4.267998 0.000000
      vertex 4.685295 -4.475104 0.100000
      vertex 4.526376 -4.267998 0.100000
    endloop
  endfacet
  facet normal -0.793353 -0.608762 0.000000
    outer loop
      vertex 4.526376 -4.267998 0.000000
      vertex 4.685295 -4.475104 0.000000
      vertex 4.685295 -4.475104 0.100000
    endloop
  endfacet
  facet normal -0.608762 -0.793353 0.000000
    outer loop
      vertex 4.319269 -4.109079 0.000000
      vertex 4.526376 -4.267998 0.100000
      vertex 4.319269 -4.109079 0.100000
    endloop
  endfacet
  facet normal -0.608762 -0.793353 0.000000
    outer loop
      vertex 4.319269 -4.109079 0.000000
      vertex 4.526376 -4.267998 0.000000
      vertex 4.526376 -4.267998 0.100000
    endloop
  endfacet
  facet normal -0.382683 -0.923880 0.000000
    outer loop
      vertex 4.078088 -4.009179 0.000000
      vertex 4.319269 -4.109079 0.100000
      vertex 4.078088 -4.009179 0.100000
    endloop
  endfacet
  facet normal -0.382683 -0.923880 0.000000
    outer loop
      vertex 4.078088 -4.009179 0.000000
      vertex 4.319269 -4.109079 0.000000
      vertex 4.319269 -4.109079 0.100000
    endloop
  endfacet
  facet normal -0.130526 -0.991445 0.000000
    outer loop
      vertex 3.819269 -3.975105 0.000000
      vertex 4.078088 -4.009179 0.100000
      vertex 3.819269 -3.975105 0.100000
    endloop
  endfacet
  facet normal -0.130526 -0.991445 0.000000
    outer loop
      vertex 3.819269 -3.975105 0.000000
      vertex 4.078088 -4.009179 0.000000
      vertex 4.078088 -4.009179 0.100000
    endloop
  endfacet
endsolid majorOut_curve
solid major_bottom
  facet normal 0.000000 -1.000000 0.000000
    outer loop
      vertex 1.042637 -3.975105 0.000000
      vertex 3.819269 -3.975105 0.000000
      vertex 3.819269 -3.975105 0.100000
    endloop
  endfacet
  facet normal 0.000000 -1.000000 0.000000
    outer loop
      vertex 1.042637 -3.975105 0.000000
      vertex 3.819269 -3.975105 0.100000
      vertex 1.042637 -3.975105 0.100000
    endloop
  endfacet
endsolid major_bottom
solid recieving_out
  facet normal -0.866025 -0.500000 0.000000
    outer loop
      vertex 0.426720 -2.908304 0.000000
      vertex 1.042637 -3.975105 0.000000
      vertex 1.042637 -3.975105 0.100000
    endloop
  endfacet
  facet normal -0.866025 -0.500000 0.000000
    outer loop
      vertex 0.426720 -2.908304 0.000000
      vertex 1.042637 -3.975105 0.100000
      vertex 0.426720 -2.908304 0.100000
    endloop
  endfacet
endsolid recieving_out
solid recieving_top
  facet normal 0.130528 -0.991445 0.000000
    outer loop
      vertex 0.380702 -2.914363 0.000000
      vertex 0.426720 -2.908304 0.000000
      vertex 0.426720 -2.908304 0.100000
    endloop
  endfacet
  facet normal 0.130528 -0.991445 0.000000
    outer loop
      vertex 0.380702 -2.914363 0.000000
      vertex 0.426720 -2.908304 0.100000
      vertex 0.380702 -2.914363 0.100000
    endloop
  endfacet
  facet normal 0.382681 -0.923880 0.000000
    outer loop
      vertex 0.337820 -2.932125 0.000000
      vertex 0.380702 -2.914363 0.100000
      vertex 0.337820 -2.932125 0.100000
    endloop
  endfacet
  facet normal 0.382681 -0.923880 0.000000
    outer loop
      vertex 0.337820 -2.932125 0.000000
      vertex 0.380702 -2.914363 0.000000
      vertex 0.380702 -2.914363 0.100000
    endloop
  endfacet
  facet normal 0.608761 -0.793354 0.000000
    outer loop
      vertex 0.300996 -2.960381 0.000000
      vertex 0.337820 -2.932125 0.100000
      vertex 0.300996 -2.960381 0.100000
    endloop
  endfacet
  facet normal 0.608761 -0.793354 0.000000
    outer loop
      vertex 0.300996 -2.960381 0.000000
      vertex 0.337820 -2.932125 0.000000
      vertex 0.337820 -2.932125 0.100000
    endloop
  endfacet
  facet normal 0.793355 -0.608760 0.000000
    outer loop
      vertex 0.272741 -2.997205 0.000000
      vertex 0.300996 -2.960381 0.100000
      vertex 0.272741 -2.997205 0.100000
    endloop
  endfacet
  facet normal 0.793355 -0.608760 0.000000
    outer loop
      vertex 0.272741 -2.997205 0.000000
      vertex 0.300996 -2.960381 0.000000
      vertex 0.300996 -2.960381 0.100000
    endloop
  endfacet
  facet normal 0.923879 -0.382684 0.000000
    outer loop
      vertex 0.254978 -3.040087 0.000000
      vertex 0.272741 -2.997205 0.100000
      vertex 0.254978 -3.040087 0.100000
    endloop
  endfacet
  facet normal 0.923879 -0.382684 0.000000
    outer loop
      vertex 0.254978 -3.040087 0.000000
      vertex 0.272741 -2.997205 0.000000
      vertex 0.272741 -2.997205 0.100000
    endloop
  endfacet
  facet normal 0.991445 -0.130527 0.000000
    outer loop
      vertex 0.248920 -3.086104 0.000000
      vertex 0.254978 -3.040087 0.100000
      vertex 0.248920 -3.086104 0.100000
    endloop
  endfacet
  facet normal 0.991445 -0.130527 0.000000
    outer loop
      vertex 0.248920 -3.086104 0.000000
      vertex 0.254978 -3.040087 0.000000
      vertex 0.254978 -3.040087 0.100000
    endloop
  endfacet
endsolid recieving_top
solid recieving
  facet normal 1.000000 0.000000 0.000000
    outer loop
      vertex 0.248920 -3.441705 0.000000
      vertex 0.248920 -3.086104 0.000000
      vertex 0.248920 -3.086104 0.100000
    endloop
  endfacet
  facet normal 1.000000 0.000000 0.000000
    outer loop
      vertex 0.248920 -3.441705 0.000000
      vertex 0.248920 -3.086104 0.100000
      vertex 0.248920 -3.441705 0.100000
    endloop
  endfacet
endsolid recieving
solid recieving_expand
  facet normal 0.642788 0.766044 0.000000
    outer loop
      vertex 1.244600 -4.277179 0.000000
      vertex 0.248920 -3.441705 0.000000
      vertex 0.248920 -3.441705 0.100000
    endloop
  endfacet
  facet normal 0.642788 0.766044 -0.000000
    outer loop
      vertex 1.244600 -4.277179 0.000000
      vertex 0.248920 -3.441705 0.100000
      vertex 1.244600 -4.277179 0.100000
    endloop
  endfacet
endsolid recieving_expand
solid minor_wall
  facet normal 1.000000 -0.000000 0.000000
    outer loop
      vertex 1.244600 -16.723179 0.100000
      vertex 1.244600 -4.277179 0.000000
      vertex 1.244600 -4.277179 0.100000
    endloop
  endfacet
  facet normal 1.000000 0.000000 0.000000
    outer loop
      vertex 1.244600 -16.723179 0.000000
      vertex 1.244600 -4.277179 0.000000
      vertex 1.244600 -16.723179 0.100000
    endloop
  endfacet
endsolid minor_wall
solid minorOutlet
  facet normal 0.000000 -1.000000 0.000000
    outer loop
      vertex 0.000000 -16.723179 0.000000
      vertex 1.244600 -16.723179 0.000000
      vertex 1.244600 -16.723179 0.100000
    endloop
  endfacet
  facet normal 0.000000 -1.000000 0.000000
    outer loop
      vertex 0.000000 -16.723179 0.000000
      vertex 1.244600 -16.723179 0.100000
      vertex 0.000000 -16.723179 0.100000
    endloop
  endfacet
endsolid minorOutlet
solid axis
  facet normal -1.000000 0.000000 0.000000
    outer loop
      vertex 0.000000 0.000000 0.000000
      vertex 0.000000 -16.723179 0.000000
      vertex 0.000000 -16.723179 0.100000
    endloop
  endfacet
  facet normal -1.000000 0.000000 0.000000
    outer loop
      vertex 0.000000 0.000000 0.000000
      vertex 0.000000 -16.723179 0.100000
      vertex 0.000000 0.000000 0.100000
    endloop
  endfacet
endsolid axis
solid conv_to_nozzle
  facet normal 0.695443 -0.718582 0.000000
    outer loop
      vertex 0.218159 -1.373109 0.000000
      vertex 0.247362 -1.344846 0.000000
      vertex 0.247362 -1.344846 0.100000
    endloop
  endfacet
  facet normal 0.695443 -0.718582 0.000000
    outer loop
      vertex 0.218159 -1.373109 0.000000
      vertex 0.247362 -1.344846 0.100000
      vertex 0.218159 -1.373109 0.100000
    endloop
  endfacet
  facet normal 0.840448 -0.541891 0.000000
    outer loop
      vertex 0.196136 -1.407266 0.000000
      vertex 0.218159 -1.373109 0.100000
      vertex 0.196136 -1.407266 0.100000
    endloop
  endfacet
  facet normal 0.840448 -0.541891 0.000000
    outer loop
      vertex 0.196136 -1.407266 0.000000
      vertex 0.218159 -1.373109 0.000000
      vertex 0.218159 -1.373109 0.100000
    endloop
  endfacet
  facet normal 0.941544 -0.336890 0.000000
    outer loop
      vertex 0.182445 -1.445530 0.000000
      vertex 0.196136 -1.407266 0.100000
      vertex 0.182445 -1.445530 0.100000
    endloop
  endfacet
  facet normal 0.941544 -0.336890 0.000000
    outer loop
      vertex 0.182445 -1.445530 0.000000
      vertex 0.196136 -1.407266 0.000000
      vertex 0.196136 -1.407266 0.100000
    endloop
  endfacet
  facet normal 0.993448 -0.114287 0.000000
    outer loop
      vertex 0.177800 -1.485904 0.000000
      vertex 0.182445 -1.445530 0.100000
      vertex 0.177800 -1.485904 0.100000
    endloop
  endfacet
  facet normal 0.993448 -0.114287 0.000000
    outer loop
      vertex 0.177800 -1.485904 0.000000
      vertex 0.182445 -1.445530 0.000000
      vertex 0.182445 -1.445530 0.100000
    endloop
  endfacet
endsolid conv_to_nozzle
solid nozzle
  facet normal 1.000000 0.000000 0.000000
    outer loop
      vertex 0.177800 -2.374904 0.000000
      vertex 0.177800 -1.485904 0.000000
      vertex 0.177800 -1.485904 0.100000
    endloop
  endfacet
  facet normal 1.000000 0.000000 0.000000
    outer loop
      vertex 0.177800 -2.374904 0.000000
      vertex 0.177800 -1.485904 0.100000
      vertex 0.177800 -2.374904 0.100000
    endloop
  endfacet
endsolid nozzle
solid nozzle_bottom
  facet normal 0.000000 1.000000 0.000000
    outer loop
      vertex 0.355600 -2.374904 0.000000
      vertex 0.177800 -2.374904 0.000000
      vertex 0.177800 -2.374904 0.100000
    endloop
  endfacet
  facet normal 0.000000 1.000000 -0.000000
    outer loop
      vertex 0.355600 -2.374904 0.000000
      vertex 0.177800 -2.374904 0.100000
      vertex 0.355600 -2.374904 0.100000
    endloop
  endfacet
endsolid nozzle_bottom
solid nozzle_out
  facet normal -0.500000 0.866026 0.000000
    outer loop
      vertex 2.819269 -0.952505 0.000000
      vertex 0.355600 -2.374904 0.000000
      vertex 0.355600 -2.374904 0.100000
    endloop
  endfacet
  facet normal -0.500000 0.866026 0.000000
    outer loop
      vertex 2.819269 -0.952505 0.000000
      vertex 0.355600 -2.374904 0.100000
      vertex 2.819269 -0.952505 0.100000
    endloop
  endfacet
endsolid nozzle_out
solid major_top
  facet normal 0.000000 1.000000 0.000000
    outer loop
      vertex 5.819269 -0.952505 0.000000
      vertex 2.819269 -0.952505 0.000000
      vertex 2.819269 -0.952505 0.100000
    endloop
  endfacet
  facet normal 0.000000 1.000000 -0.000000
    outer loop
      vertex 5.819269 -0.952505 0.000000
      vertex 2.819269 -0.952505 0.100000
      vertex 5.819269 -0.952505 0.100000
    endloop
  endfacet
endsolid major_top
solid major_side
  facet normal 1.000000 0.000000 0.000000
    outer loop
      vertex 5.819269 -3.975105 0.000000
      vertex 5.819269 -0.952505 0.000000
      vertex 5.819269 -0.952505 0.100000
    endloop
  endfacet
  facet normal 1.000000 0.000000 0.000000
    outer loop
      vertex 5.819269 -3.975105 0.000000
      vertex 5.819269 -0.952505 0.100000
      vertex 5.819269 -3.975105 0.100000
    endloop
  endfacet
endsolid major_side
solid majorOut_out
  facet normal 1.000000 0.000000 0.000000
    outer loop
      vertex 5.819269 -7.975104 0.000000
      vertex 5.819269 -3.975105 0.000000
      vertex 5.819269 -3.975105 0.100000
    endloop
  endfacet
  facet normal 1.000000 0.000000 0.000000
    outer loop
      vertex 5.819269 -7.975104 0.000000
      vertex 5.819269 -3.975105 0.100000
      vertex 5.819269 -7.975104 0.100000
    endloop
  endfacet
endsolid majorOut_out
solid majorOutlet
  facet normal 0.000000 -1.000000 0.000000
    outer loop
      vertex 4.819269 -7.975104 0.000000
      vertex 5.819269 -7.975104 0.000000
      vertex 5.819269 -7.975104 0.100000
    endloop
  endfacet
  facet normal 0.000000 -1.000000 0.000000
    outer loop
      vertex 4.819269 -7.975104 0.000000
      vertex 5.819269 -7.975104 0.100000
      vertex 4.819269 -7.975104 0.100000
    endloop
  endfacet
endsolid majorOutlet
